{
  "accessors": [
    {
      "bufferView": 2,
      "componentType": 5126,
      "count": 174,
      "max": [
        0.5735459923744202,
        6.763833999633789,
        0.7680919766426086
      ],
      "min": [
        0.48354199528694153,
        6.684844017028809,
        0.6780880093574524
      ],
      "type": "VEC3"
    },
    {
      "bufferView": 2,
      "byteOffset": 2088,
      "componentType": 5126,
      "count": 174,
      "max": [
        1.0,
        1.0,
        1.0
      ],
      "min": [
        -1.0,
        -1.0,
        -1.0
      ],
      "type": "VEC3"
    },
    {
      "bufferView": 1,
      "componentType": 5126,
      "count": 174,
      "max": [
        0.8339049816131592,
        0.8423029780387878
      ],
      "min": [
        0.3182060122489929,
        0.8379430174827576
      ],
      "type": "VEC2"
    },
    {
      "bufferView": 0,
      "componentType": 5125,
      "count": 720,
      "type": "SCALAR"
    },
    {
      "bufferView": 2,
      "byteOffset": 4176,
      "componentType": 5126,
      "count": 159,
      "max": [
        0.7366700172424316,
        6.599750995635986,
        1.6718480587005615
      ],
      "min": [
        0.06947600096464157,
        2.913573980331421,
        0.5649809837341309
      ],
      "type": "VEC3"
    },
    {
      "bufferView": 2,
      "byteOffset": 6084,
      "componentType": 5126,
      "count": 159,
      "max": [
        0.9953913688659668,
        0.6773034334182739,
        0.9889584183692932
      ],
      "min": [
        -0.9953913688659668,
        -0.9964743852615356,
        -0.9959602355957031
      ],
      "type": "VEC3"
    },
    {
      "bufferView": 1,
      "byteOffset": 1392,
      "componentType": 5126,
      "count": 159,
      "max": [
        0.33333298563957214,
        1.0
      ],
      "min": [
        0.16666699945926666,
        1.0
      ],
      "type": "VEC2"
    },
    {
      "bufferView": 0,
      "byteOffset": 2880,
      "componentType": 5125,
      "count": 618,
      "type": "SCALAR"
    },
    {
      "bufferView": 2,
      "byteOffset": 7992,
      "componentType": 5126,
      "count": 848,
      "max": [
        5.842195987701416,
        -1.1253139972686768,
        0.3670949935913086
      ],
      "min": [
        -5.0360541343688965,
        -4.72867488861084,
        -0.04059600085020065
      ],
      "type": "VEC3"
    },
    {
      "bufferView": 2,
      "byteOffset": 18168,
      "componentType": 5126,
      "count": 848,
      "max": [
        1.0,
        1.0,
        1.0
      ],
      "min": [
        -1.0,
        -1.0,
        -1.0
      ],
      "type": "VEC3"
    },
    {
      "bufferView": 1,
      "byteOffset": 2664,
      "componentType": 5126,
      "count": 848,
      "max": [
        0.875,
        1.0
      ],
      "min": [
        0.125,
        0.0
      ],
      "type": "VEC2"
    },
    {
      "bufferView": 0,
      "byteOffset": 5352,
      "componentType": 5125,
      "count": 1488,
      "type": "SCALAR"
    },
    {
      "bufferView": 2,
      "byteOffset": 28344,
      "componentType": 5126,
      "count": 1216,
      "max": [
        1.6697369813919067,
        -5.5724568367004395,
        0.42075198888778687
      ],
      "min": [
        -0.8634510040283203,
        -6.5530571937561035,
        -0.35377100110054016
      ],
      "type": "VEC3"
    },
    {
      "bufferView": 2,
      "byteOffset": 42936,
      "componentType": 5126,
      "count": 1216,
      "max": [
        0.9993518590927124,
        1.0,
        0.9878835082054138
      ],
      "min": [
        -0.9993554353713989,
        -0.6223974823951721,
        -0.9878835082054138
      ],
      "type": "VEC3"
    },
    {
      "bufferView": 1,
      "byteOffset": 9448,
      "componentType": 5126,
      "count": 1216,
      "max": [
        0.625,
        0.75
      ],
      "min": [
        0.375,
        0.5
      ],
      "type": "VEC2"
    },
    {
      "bufferView": 0,
      "byteOffset": 11304,
      "componentType": 5125,
      "count": 1920,
      "type": "SCALAR"
    },
    {
      "bufferView": 2,
      "byteOffset": 57528,
      "componentType": 5126,
      "count": 2505,
      "max": [
        1.8954230546951294,
        6.456085205078125,
        3.224313974380493
      ],
      "min": [
        -1.115664005279541,
        -5.784113883972168,
        -0.8807219862937927
      ],
      "type": "VEC3"
    },
    {
      "bufferView": 2,
      "byteOffset": 87588,
      "componentType": 5126,
      "count": 2505,
      "max": [
        0.9999427795410156,
        1.0,
        1.0
      ],
      "min": [
        -1.0,
        -0.9749311804771423,
        -1.0
      ],
      "type": "VEC3"
    },
    {
      "bufferView": 1,
      "byteOffset": 19176,
      "componentType": 5126,
      "count": 2505,
      "max": [
        1.0,
        1.0
      ],
      "min": [
        0.02721400000154972,
        0.0
      ],
      "type": "VEC2"
    },
    {
      "bufferView": 0,
      "byteOffset": 18984,
      "componentType": 5125,
      "count": 9378,
      "type": "SCALAR"
    },
    {
      "bufferView": 2,
      "byteOffset": 117648,
      "componentType": 5126,
      "count": 256,
      "max": [
        0.43774598836898804,
        2.3830699920654297,
        0.3379819989204407
      ],
      "min": [
        0.36839398741722107,
        -4.740234851837158,
        -0.07865799963474274
      ],
      "type": "VEC3"
    },
    {
      "bufferView": 2,
      "byteOffset": 120720,
      "componentType": 5126,
      "count": 256,
      "max": [
        1.0,
        1.0,
        1.0
      ],
      "min": [
        -1.0,
        -1.0,
        -1.0
      ],
      "type": "VEC3"
    },
    {
      "bufferView": 1,
      "byteOffset": 39216,
      "componentType": 5126,
      "count": 256,
      "max": [
        0.875,
        1.0
      ],
      "min": [
        0.125,
        0.0
      ],
      "type": "VEC2"
    },
    {
      "bufferView": 0,
      "byteOffset": 56496,
      "componentType": 5125,
      "count": 444,
      "type": "SCALAR"
    },
    {
      "bufferView": 2,
      "byteOffset": 123792,
      "componentType": 5126,
      "count": 146,
      "max": [
        0.73226398229599,
        5.7764058113098145,
        1.2783069610595703
      ],
      "min": [
        0.07388900220394135,
        5.509305953979492,
        0.6987029910087585
      ],
      "type": "VEC3"
    },
    {
      "bufferView": 2,
      "byteOffset": 125544,
      "componentType": 5126,
      "count": 146,
      "max": [
        0.9999849796295166,
        0.9343752861022949,
        0.9826428294181824
      ],
      "min": [
        -0.9999849796295166,
        -0.9343752861022949,
        -0.9826428294181824
      ],
      "type": "VEC3"
    },
    {
      "bufferView": 1,
      "byteOffset": 41264,
      "componentType": 5126,
      "count": 146,
      "max": [
        0.6175709962844849,
        1.0
      ],
      "min": [
        0.16666699945926666,
        0.08581899851560593
      ],
      "type": "VEC2"
    },
    {
      "bufferView": 0,
      "byteOffset": 58272,
      "componentType": 5125,
      "count": 378,
      "type": "SCALAR"
    },
    {
      "bufferView": 2,
      "byteOffset": 127296,
      "componentType": 5126,
      "count": 136,
      "max": [
        0.7533439993858337,
        4.106564044952393,
        1.6816619634628296
      ],
      "min": [
        0.05280200019478798,
        3.9373629093170166,
        1.0087239742279053
      ],
      "type": "VEC3"
    },
    {
      "bufferView": 2,
      "byteOffset": 128928,
      "componentType": 5126,
      "count": 136,
      "max": [
        1.0,
        0.9857707619667053,
        0.9790958762168884
      ],
      "min": [
        -1.0,
        -0.9857707619667053,
        -0.9790958762168884
      ],
      "type": "VEC3"
    },
    {
      "bufferView": 1,
      "byteOffset": 42432,
      "componentType": 5126,
      "count": 136,
      "max": [
        0.6203399896621704,
        1.0
      ],
      "min": [
        0.16666699945926666,
        0.08330199867486954
      ],
      "type": "VEC2"
    },
    {
      "bufferView": 0,
      "byteOffset": 59784,
      "componentType": 5125,
      "count": 354,
      "type": "SCALAR"
    },
    {
      "bufferView": 2,
      "byteOffset": 130560,
      "componentType": 5126,
      "count": 3110,
      "max": [
        5.83408784866333,
        10.295356750488281,
        3.2243149280548096
      ],
      "min": [
        -5.024178981781006,
        -8.51475715637207,
        -0.8807219862937927
      ],
      "type": "VEC3"
    },
    {
      "bufferView": 2,
      "byteOffset": 167880,
      "componentType": 5126,
      "count": 3110,
      "max": [
        1.0,
        1.0,
        1.0
      ],
      "min": [
        -1.0,
        -1.0,
        -1.0
      ],
      "type": "VEC3"
    },
    {
      "bufferView": 1,
      "byteOffset": 43520,
      "componentType": 5126,
      "count": 3110,
      "max": [
        0.998091995716095,
        1.0
      ],
      "min": [
        0.0,
        0.0
      ],
      "type": "VEC2"
    },
    {
      "bufferView": 0,
      "byteOffset": 61200,
      "componentType": 5125,
      "count": 9684,
      "type": "SCALAR"
    }
  ],
  "asset": {
    "extras": {
      "author": "Oof (https://sketchfab.com/Oof31)",
      "license": "CC-BY-4.0 (http://creativecommons.org/licenses/by/4.0/)",
      "source": "https://sketchfab.com/3d-models/sukhoi-su-30-23f23629f35042d78f7ad8f875a49afc",
      "title": "Sukhoi SU-30"
    },
    "generator": "Sketchfab-13.58.0",
    "version": "2.0"
  },
  "bufferViews": [
    {
      "buffer": 0,
      "byteLength": 99936,
      "name": "floatBufferViews",
      "target": 34963
    },
    {
      "buffer": 0,
      "byteLength": 68400,
      "byteOffset": 99936,
      "byteStride": 8,
      "name": "floatBufferViews",
      "target": 34962
    },
    {
      "buffer": 0,
      "byteLength": 205200,
      "byteOffset": 168336,
      "byteStride": 12,
      "name": "floatBufferViews",
      "target": 34962
    }
  ],
  "buffers": [
    {
      "byteLength": 373536,
      "uri": "scene.bin"
    }
  ],
  "images": [
    {
      "uri": "textures/None.004_baseColor.png"
    },
    {
      "uri": "textures/None.004_metallicRoughness.png"
    }
  ],
  "materials": [
    {
      "doubleSided": true,
      "name": "Bulb",
      "pbrMetallicRoughness": {
        "metallicFactor": 0.0,
        "roughnessFactor": 0.6
      }
    },
    {
      "doubleSided": true,
      "name": "Material.007",
      "pbrMetallicRoughness": {
        "baseColorFactor": [
          0.0,
          0.0,
          0.0,
          1.0
        ],
        "metallicFactor": 0.6218877113620196,
        "roughnessFactor": 0.6
      }
    },
    {
      "doubleSided": true,
      "name": "Material.008",
      "pbrMetallicRoughness": {
        "baseColorFactor": [
          0.6592412686351545,
          0.6592412686351545,
          0.6592412686351545,
          1.0
        ],
        "roughnessFactor": 0.6
      }
    },
    {
      "doubleSided": true,
      "name": "None.004",
      "pbrMetallicRoughness": {
        "baseColorTexture": {
          "index": 0
        },
        "metallicRoughnessTexture": {
          "index": 1
        },
        "roughnessFactor": 0.6
      }
    },
    {
      "doubleSided": true,
      "name": "None.005",
      "pbrMetallicRoughness": {
        "baseColorFactor": [
          0.386429433787049,
          0.386429433787049,
          0.386429433787049,
          1.0
        ],
        "roughnessFactor": 0.6
      }
    },
    {
      "doubleSided": true,
      "name": "None.006",
      "pbrMetallicRoughness": {
        "roughnessFactor": 0.6
      }
    },
    {
      "doubleSided": true,
      "name": "None.007",
      "pbrMetallicRoughness": {
        "roughnessFactor": 0.6
      }
    },
    {
      "doubleSided": true,
      "name": "Pylons",
      "pbrMetallicRoughness": {
        "baseColorFactor": [
          0.38638409712110955,
          0.38638409712110955,
          0.38638409712110955,
          1.0
        ],
        "roughnessFactor": 0.6
      }
    },
    {
      "doubleSided": true,
      "name": "canopy",
      "pbrMetallicRoughness": {
        "baseColorTexture": {
          "index": 0
        },
        "metallicFactor": 0.0,
        "roughnessFactor": 0.6
      }
    }
  ],
  "meshes": [
    {
      "name": "Object_0",
      "primitives": [
        {
          "attributes": {
            "NORMAL": 1,
            "POSITION": 0,
            "TEXCOORD_0": 2
          },
          "indices": 3,
          "material": 0,
          "mode": 4
        }
      ]
    },
    {
      "name": "Object_1",
      "primitives": [
        {
          "attributes": {
            "NORMAL": 5,
            "POSITION": 4,
            "TEXCOORD_0": 6
          },
          "indices": 7,
          "material": 1,
          "mode": 4
        }
      ]
    },
    {
      "name": "Object_2",
      "primitives": [
        {
          "attributes": {
            "NORMAL": 9,
            "POSITION": 8,
            "TEXCOORD_0": 10
          },
          "indices": 11,
          "material": 7,
          "mode": 4
        }
      ]
    },
    {
      "name": "Object_3",
      "primitives": [
        {
          "attributes": {
            "NORMAL": 13,
            "POSITION": 12,
            "TEXCOORD_0": 14
          },
          "indices": 15,
          "material": 2,
          "mode": 4
        }
      ]
    },
    {
      "name": "Object_4",
      "primitives": [
        {
          "attributes": {
            "NORMAL": 17,
            "POSITION": 16,
            "TEXCOORD_0": 18
          },
          "indices": 19,
          "material": 3,
          "mode": 4
        }
      ]
    },
    {
      "name": "Object_5",
      "primitives": [
        {
          "attributes": {
            "NORMAL": 21,
            "POSITION": 20,
            "TEXCOORD_0": 22
          },
          "indices": 23,
          "material": 4,
          "mode": 4
        }
      ]
    },
    {
      "name": "Object_6",
      "primitives": [
        {
          "attributes": {
            "NORMAL": 25,
            "POSITION": 24,
            "TEXCOORD_0": 26
          },
          "indices": 27,
          "material": 5,
          "mode": 4
        }
      ]
    },
    {
      "name": "Object_7",
      "primitives": [
        {
          "attributes": {
            "NORMAL": 29,
            "POSITION": 28,
            "TEXCOORD_0": 30
          },
          "indices": 31,
          "material": 6,
          "mode": 4
        }
      ]
    },
    {
      "name": "Object_8",
      "primitives": [
        {
          "attributes": {
            "NORMAL": 33,
            "POSITION": 32,
            "TEXCOORD_0": 34
          },
          "indices": 35,
          "material": 8,
          "mode": 4
        }
      ]
    }
  ],
  "nodes": [
    {
      "children": [
        1
      ],
      "matrix": [
        1.0,
        0.0,
        0.0,
        0.0,
        0.0,
        2.220446049250313e-16,
        -1.0,
        0.0,
        0.0,
        1.0,
        2.220446049250313e-16,
        0.0,
        0.0,
        0.0,
        0.0,
        1.0
      ],
      "name": "Sketchfab_model"
    },
    {
      "children": [
        2,
        3,
        4,
        5,
        6,
        7,
        8,
        9,
        10
      ],
      "name": "Sukhoi SU-30 Sketchfab Test.obj.cleaner.materialmerger.gles"
    },
    {
      "mesh": 0,
      "name": "Object_2"
    },
    {
      "mesh": 1,
      "name": "Object_3"
    },
    {
      "mesh": 2,
      "name": "Object_4"
    },
    {
      "mesh": 3,
      "name": "Object_5"
    },
    {
      "mesh": 4,
      "name": "Object_6"
    },
    {
      "mesh": 5,
      "name": "Object_7"
    },
    {
      "mesh": 6,
      "name": "Object_8"
    },
    {
      "mesh": 7,
      "name": "Object_9"
    },
    {
      "mesh": 8,
      "name": "Object_10"
    }
  ],
  "samplers": [
    {
      "magFilter": 9729,
      "minFilter": 9987,
      "wrapS": 10497,
      "wrapT": 10497
    }
  ],
  "scene": 0,
  "scenes": [
    {
      "name": "Sketchfab_Scene",
      "nodes": [
        0
      ]
    }
  ],
  "textures": [
    {
      "sampler": 0,
      "source": 0
    },
    {
      "sampler": 0,
      "source": 1
    }
  ]
}
